<mxfile host="app.diagrams.net" agent="Mozilla/5.0 (X11; Ubuntu; Linux x86_64; rv:133.0) Gecko/20100101 Firefox/133.0" version="26.1.0">
  <diagram name="Страница — 1" id="Tf6_BOWG9L08J7w0gGSE">
    <mxGraphModel dx="1506" dy="947" grid="1" gridSize="10" guides="1" tooltips="1" connect="1" arrows="1" fold="1" page="1" pageScale="1" pageWidth="827" pageHeight="1169" math="0" shadow="0">
      <root>
        <mxCell id="0" />
        <mxCell id="1" parent="0" />
        <mxCell id="LtUM50EqSOjnjI1Tk3Z5-1" value="Заказчик" style="shape=umlActor;verticalLabelPosition=bottom;verticalAlign=top;html=1;outlineConnect=0;" vertex="1" parent="1">
          <mxGeometry x="70" y="230" width="30" height="60" as="geometry" />
        </mxCell>
        <mxCell id="LtUM50EqSOjnjI1Tk3Z5-2" value="Дизайнер" style="shape=umlActor;verticalLabelPosition=bottom;verticalAlign=top;html=1;outlineConnect=0;" vertex="1" parent="1">
          <mxGeometry x="370" y="270" width="30" height="60" as="geometry" />
        </mxCell>
        <mxCell id="LtUM50EqSOjnjI1Tk3Z5-3" value="Менеджер" style="shape=umlActor;verticalLabelPosition=bottom;verticalAlign=top;html=1;outlineConnect=0;" vertex="1" parent="1">
          <mxGeometry x="100" y="400" width="30" height="60" as="geometry" />
        </mxCell>
        <mxCell id="LtUM50EqSOjnjI1Tk3Z5-4" value="Аналитик" style="shape=umlActor;verticalLabelPosition=bottom;verticalAlign=top;html=1;outlineConnect=0;" vertex="1" parent="1">
          <mxGeometry x="170" y="555" width="30" height="60" as="geometry" />
        </mxCell>
      </root>
    </mxGraphModel>
  </diagram>
</mxfile>
